<svg width="75" height="60" viewBox="0 0 75 60" fill="none" xmlns="http://www.w3.org/2000/svg">
<path d="M0 32C0 14.3269 14.3269 0 32 0H50C55.5228 0 60 4.47715 60 10V50C60 55.5228 55.5228 60 50 60H10C4.47715 60 0 55.5228 0 50V32Z" fill="white"/>
<path fill-rule="evenodd" clip-rule="evenodd" d="M33.75 38.75C33.75 38.4185 33.9475 38.1005 34.2991 37.8661C34.6508 37.6317 35.1277 37.5 35.625 37.5H69.375C69.8722 37.5 70.3492 37.6317 70.7008 37.8661C71.0524 38.1005 71.25 38.4185 71.25 38.75C71.25 39.0815 71.0524 39.3994 70.7008 39.6339C70.3492 39.8683 69.8722 40 69.375 40H35.625C35.1277 40 34.6508 39.8683 34.2991 39.6339C33.9475 39.3994 33.75 39.0815 33.75 38.75ZM33.75 28.75C33.75 28.4185 33.9475 28.1005 34.2991 27.8661C34.6508 27.6317 35.1277 27.5 35.625 27.5H69.375C69.8722 27.5 70.3492 27.6317 70.7008 27.8661C71.0524 28.1005 71.25 28.4185 71.25 28.75C71.25 29.0815 71.0524 29.3994 70.7008 29.6339C70.3492 29.8683 69.8722 30 69.375 30H35.625C35.1277 30 34.6508 29.8683 34.2991 29.6339C33.9475 29.3994 33.75 29.0815 33.75 28.75ZM33.75 18.75C33.75 18.4185 33.9475 18.1005 34.2991 17.8661C34.6508 17.6317 35.1277 17.5 35.625 17.5H69.375C69.8722 17.5 70.3492 17.6317 70.7008 17.8661C71.0524 18.1005 71.25 18.4185 71.25 18.75C71.25 19.0815 71.0524 19.3994 70.7008 19.6339C70.3492 19.8683 69.8722 20 69.375 20H35.625C35.1277 20 34.6508 19.8683 34.2991 19.6339C33.9475 19.3994 33.75 19.0815 33.75 18.75ZM29.4525 15.365C29.6271 15.4811 29.7656 15.619 29.8601 15.7709C29.9547 15.9228 30.0033 16.0856 30.0033 16.25C30.0033 16.4144 29.9547 16.5772 29.8601 16.7291C29.7656 16.8809 29.6271 17.0189 29.4525 17.135L23.8275 20.885C23.6533 21.0014 23.4464 21.0937 23.2186 21.1568C22.9908 21.2198 22.7466 21.2522 22.5 21.2522C22.2533 21.2522 22.0091 21.2198 21.7813 21.1568C21.5535 21.0937 21.3466 21.0014 21.1725 20.885L19.2975 19.635C19.1231 19.5188 18.9848 19.3808 18.8905 19.2289C18.7961 19.0771 18.7476 18.9143 18.7476 18.75C18.7476 18.5856 18.7961 18.4229 18.8905 18.271C18.9848 18.1192 19.1231 17.9812 19.2975 17.865C19.4718 17.7488 19.6787 17.6566 19.9065 17.5937C20.1343 17.5308 20.3784 17.4984 20.625 17.4984C20.8715 17.4984 21.1156 17.5308 21.3434 17.5937C21.5712 17.6566 21.7781 17.7488 21.9525 17.865L22.5 18.2325L26.7975 15.365C26.9716 15.2486 27.1785 15.1562 27.4063 15.0932C27.6341 15.0302 27.8783 14.9977 28.125 14.9977C28.3716 14.9977 28.6158 15.0302 28.8436 15.0932C29.0714 15.1562 29.2783 15.2486 29.4525 15.365V15.365ZM29.4525 25.365C29.6271 25.4811 29.7656 25.619 29.8601 25.7709C29.9547 25.9228 30.0033 26.0856 30.0033 26.25C30.0033 26.4144 29.9547 26.5772 29.8601 26.7291C29.7656 26.8809 29.6271 27.0189 29.4525 27.135L23.8275 30.885C23.6533 31.0014 23.4464 31.0937 23.2186 31.1568C22.9908 31.2198 22.7466 31.2522 22.5 31.2522C22.2533 31.2522 22.0091 31.2198 21.7813 31.1568C21.5535 31.0937 21.3466 31.0014 21.1725 30.885L19.2975 29.635C18.9454 29.4003 18.7476 29.0819 18.7476 28.75C18.7476 28.418 18.9454 28.0997 19.2975 27.865C19.6495 27.6303 20.127 27.4984 20.625 27.4984C21.1229 27.4984 21.6004 27.6303 21.9525 27.865L22.5 28.2325L26.7975 25.365C26.9716 25.2486 27.1785 25.1562 27.4063 25.0932C27.6341 25.0302 27.8783 24.9977 28.125 24.9977C28.3716 24.9977 28.6158 25.0302 28.8436 25.0932C29.0714 25.1562 29.2783 25.2486 29.4525 25.365V25.365ZM29.4525 35.365C29.6271 35.4811 29.7656 35.619 29.8601 35.7709C29.9547 35.9228 30.0033 36.0856 30.0033 36.25C30.0033 36.4144 29.9547 36.5772 29.8601 36.7291C29.7656 36.8809 29.6271 37.0189 29.4525 37.135L23.8275 40.885C23.6533 41.0014 23.4464 41.0937 23.2186 41.1568C22.9908 41.2198 22.7466 41.2522 22.5 41.2522C22.2533 41.2522 22.0091 41.2198 21.7813 41.1568C21.5535 41.0937 21.3466 41.0014 21.1725 40.885L19.2975 39.635C18.9454 39.4003 18.7476 39.0819 18.7476 38.75C18.7476 38.418 18.9454 38.0997 19.2975 37.865C19.6495 37.6303 20.127 37.4984 20.625 37.4984C21.1229 37.4984 21.6004 37.6303 21.9525 37.865L22.5 38.2325L26.7975 35.365C26.9716 35.2486 27.1785 35.1562 27.4063 35.0932C27.6341 35.0302 27.8783 34.9977 28.125 34.9977C28.3716 34.9977 28.6158 35.0302 28.8436 35.0932C29.0714 35.1562 29.2783 35.2486 29.4525 35.365V35.365Z" fill="#02044A"/>
</svg>
